<?xml version="1.0" encoding="UTF-8" standalone="no"?>
<svg
   xmlns:dc="http://purl.org/dc/elements/1.1/"
   xmlns:cc="http://creativecommons.org/ns#"
   xmlns:rdf="http://www.w3.org/1999/02/22-rdf-syntax-ns#"
   xmlns:svg="http://www.w3.org/2000/svg"
   xmlns="http://www.w3.org/2000/svg"
   xmlns:sodipodi="http://sodipodi.sourceforge.net/DTD/sodipodi-0.dtd"
   xmlns:inkscape="http://www.inkscape.org/namespaces/inkscape"
   width="128"
   height="128"
   viewBox="0 0 33.866665 33.866667"
   version="1.1"
   id="svg8"
   inkscape:version="1.0.2-2 (e86c870879, 2021-01-15)"
   sodipodi:docname="icon.svg"
   inkscape:export-filename="icon-256x256.png"
   inkscape:export-xdpi="192"
   inkscape:export-ydpi="192">
  <defs
     id="defs2" />
  <sodipodi:namedview
     id="base"
     pagecolor="#ffffff"
     bordercolor="#7d7d7d"
     borderopacity="0.49019608"
     inkscape:pageopacity="0.0"
     inkscape:pageshadow="2"
     inkscape:zoom="1"
     inkscape:cx="-2.206919"
     inkscape:cy="-6.7774915"
     inkscape:document-units="px"
     inkscape:current-layer="svg8"
     showgrid="false"
     inkscape:snap-bbox="true"
     inkscape:bbox-paths="true"
     inkscape:bbox-nodes="true"
     inkscape:object-paths="true"
     units="px"
     borderlayer="true"
     inkscape:showpageshadow="false"
     inkscape:pagecheckerboard="false"
     showguides="true"
     inkscape:guide-bbox="true"
     inkscape:document-rotation="0"
     fit-margin-top="0"
     fit-margin-left="0"
     fit-margin-right="0"
     fit-margin-bottom="0">
    <inkscape:grid
       type="xygrid"
       id="grid4499"
       spacingx="5.2916667"
       spacingy="5.2916667"
       empspacing="20"
       dotted="true"
       originx="-15.874759"
       originy="-15.874965" />
  </sodipodi:namedview>
  <metadata
     id="metadata5">
    <rdf:RDF>
      <cc:Work
         rdf:about="">
        <dc:format>image/svg+xml</dc:format>
        <dc:type
           rdf:resource="http://purl.org/dc/dcmitype/StillImage" />
        <dc:title></dc:title>
        <cc:license
           rdf:resource="http://creativecommons.org/publicdomain/zero/1.0/" />
      </cc:Work>
      <cc:License
         rdf:about="http://creativecommons.org/publicdomain/zero/1.0/">
        <cc:permits
           rdf:resource="http://creativecommons.org/ns#Reproduction" />
        <cc:permits
           rdf:resource="http://creativecommons.org/ns#Distribution" />
        <cc:permits
           rdf:resource="http://creativecommons.org/ns#DerivativeWorks" />
      </cc:License>
    </rdf:RDF>
  </metadata>
  <rect
     transform="rotate(14.999999)"
     ry="2.6458333"
     rx="2.6458333"
     y="-2.3367383"
     x="6.4285994"
     height="28.620827"
     width="28.620827"
     id="rect1608-1-0-6"
     style="display:inline;fill:#fbce2f;fill-opacity:1;stroke:none;stroke-width:0.529164;stroke-linecap:round;stroke-linejoin:round" />
  <g
     id="g27525"
     transform="matrix(0.50108099,0,0,0.50108099,-304.97649,-359.59165)"
     style="stroke-width:0.528025">
    <g
       id="use27224"
       style="fill:#1a1a1a;fill-opacity:1;stroke:none;stroke-width:0.528025"
       transform="translate(629.07963,738.36267)">
      <title
         id="title27493">universal-access</title>
      <path
         d="m 10,2.6 c 0.83,0 1.5,0.67 1.5,1.5 0,0.83 -0.67,1.51 -1.5,1.51 C 9.18,5.61 8.5,4.93 8.5,4.1 8.5,3.27 9.18,2.6 10,2.6 Z M 3.4,7.36 C 3.4,6.71 10,6.6 10,6.6 c 0,0 6.6,0.11 6.6,0.76 0,0.65 -4.47,1.4 -4.47,1.4 0,0 1.69,8.14 1.06,8.38 C 12.57,17.38 10,11.95 10,11.95 c 0,0 -2.56,5.43 -3.18,5.19 C 6.19,16.9 7.88,8.76 7.88,8.76 7.88,8.76 3.4,8.01 3.4,7.36 Z"
         id="path27495"
         style="stroke-width:0.528025" />
    </g>
    <g
       id="use27392"
       style="fill:#1a1a1a;fill-opacity:1;stroke:none;stroke-width:0.413793"
       transform="matrix(1.2760606,0,0,1.2760606,622.01311,731.00842)">
      <title
         id="title27499">ios-search-strong</title>
      <path
         d="M 21.531,18.625 C 22.469,17.15 23.019,15.4 23.019,13.519 23.019,8.263 18.763,4 13.513,4 8.257,4 4.001,8.262 4.001,13.519 c 0,5.257 4.256,9.519 9.506,9.519 1.906,0 3.681,-0.563 5.169,-1.525 l 0.431,-0.3 L 25.894,28 28,25.856 21.219,19.069 21.532,18.625 Z M 18.837,8.2 c 1.419,1.419 2.2,3.306 2.2,5.313 0,2.007 -0.781,3.894 -2.2,5.313 -1.419,1.419 -3.306,2.2 -5.313,2.2 -2.007,0 -3.894,-0.781 -5.313,-2.2 -1.419,-1.419 -2.2,-3.306 -2.2,-5.313 0,-2.007 0.781,-3.894 2.2,-5.313 C 9.63,6.781 11.517,6 13.524,6 c 2.007,0 3.894,0.781 5.313,2.2 z"
         id="path27501"
         style="stroke-width:0.413793" />
    </g>
  </g>
</svg>
